<?xml version="1.0" encoding="UTF-8"?>
<!DOCTYPE svg PUBLIC "-//W3C//DTD SVG 1.1//EN" "http://www.w3.org/Graphics/SVG/1.1/DTD/svg11.dtd">
<!-- Creator: CorelDRAW 2018 (64 Bit Versão de avaliação) -->
<svg xmlns="http://www.w3.org/2000/svg" xml:space="preserve" width="205.13mm" height="207.498mm" version="1.1" style="shape-rendering:geometricPrecision; text-rendering:geometricPrecision; image-rendering:optimizeQuality; fill-rule:evenodd; clip-rule:evenodd"
viewBox="0 0 20512.96 20749.81"
 xmlns:xlink="http://www.w3.org/1999/xlink">
 <defs>
  <style type="text/css">
   <![CDATA[
    .fil0 {fill:#26C6DA}
   ]]>
  </style>
 </defs>
 <g id="Camada_x0020_1">
  <metadata id="CorelCorpID_0Corel-Layer"/>
  <g id="_816957376">
   <path class="fil0" d="M11725.93 13967.73c360.74,638.36 1033.79,1933.22 276.16,3751.66 -93.34,224.06 -204.22,394.34 -345.92,582.29 -1165.16,1545.5 -3142.25,1744.66 -4916.3,1156.93 -464.76,-153.96 -925.94,-437.63 -1257.73,-753.45 -355.64,-338.58 -582.83,-741.83 -766.49,-1244.67 -345.45,-945.78 -26.85,-1657.33 -353.81,-1657.33 -275.24,0 -191.11,598.9 -236.1,898.44l-75.4 1059.11c-25.96,2103.02 -379.12,2120.25 1645.54,2690.3 464.01,130.63 1365.82,251.16 1966.29,251.16 2478.37,0 4822.45,-712.85 5948.43,-3076.03 1155,-2424.1 -535.84,-6704.93 -1917.97,-7533.28l33.3 3874.87zm-2522.1 -3192.2c-12.61,-930.35 -48.25,-2686.54 -117.27,-2739.61l-680.9 -556.74c-504.47,-394.14 -1286.5,-1257.89 -1610.81,-1792.68 -1096.49,-1807.97 -316.23,-4786.5 2930.04,-4786.5 1034.87,0 2038.18,271.34 2614.83,737.11 202.87,163.85 248.64,209.76 412.56,412.56 602,744.85 368.96,1660.9 685.53,1892.85 273.23,-72.96 208.36,-282.92 206.43,-721.78 -1.29,-294.51 -16.04,-639.79 -0.41,-928.66 133.95,-2480.58 466.14,-1652.5 -1412.06,-2094.08 -1759.92,-413.75 -4583.94,-231.58 -6026.11,1050.37 -167.12,148.56 -448.31,425.06 -585.21,600.85 -266.41,342.01 -296.93,412.01 -472.44,765.24 -1621.07,3262.54 1937.34,8189.65 4047.49,8698.71 2.99,-179.18 5.81,-358.39 8.33,-537.64z"/>
   <path class="fil0" d="M14623.86 16164.17c0,306.77 -96.84,388.19 -103.13,670.36 493.19,0 1150.38,91.28 1308.69,-238.34 185.3,-385.61 302.46,-1518.82 289.93,-2082.22l-154.72 0c-208.3,894.13 -366.31,1423.17 -1340.77,1650.2zm-6446.01 -11963.81c117.92,160.97 24.71,80.06 291.05,121.52 291.31,45.33 767.55,49.85 979.66,361.11 451.46,662.45 220.02,8400.5 203,9602.93 -77.17,509.95 45.8,756.55 -143.88,1661.04 -110.13,525.27 -301.4,590.99 -767.41,624.87 -299.44,21.82 -191.25,-54.64 -304.57,159.57 80.6,45.3 2822.05,51.58 3300.36,51.58 4.52,-203.4 51.55,-226.88 51.55,-618.81 0,-259 -382.96,-102.83 -558.4,-679.24l-90.94 -10593.13c182.51,-522.55 751.42,-588.31 1268.16,-588.31 -30.69,-114.92 -12.03,-154.71 -154.68,-154.71 -465.33,0 -3985.75,-55.97 -4073.9,51.58z"/>
   <path class="fil0" d="M14249.4 1055.6c3680.84,1557.16 6263.56,5202.08 6263.56,9450.19 0,5495.2 -4321.71,9980.77 -9751.63,10244.02 885.09,-304.3 1684.35,-776.66 2335.79,-1467.96 3703.33,-1197.85 6381.88,-4673.89 6381.88,-8776.06 0,-3696.94 -2175.6,-6885.27 -5316.05,-8355.98 23.85,-366.14 59.19,-728.55 86.45,-1094.21zm-10722.94 17189.7c-2160.58,-1880.38 -3526.46,-4650.37 -3526.46,-7739.51 0,-3814.08 2082.02,-7141.69 5171.43,-8908.88 -209.43,275.24 -319.42,467.78 -479.88,790.73 -180.43,363.11 -313.4,718.92 -401.04,1085.81 -1992.07,1691.65 -3256.55,4214.17 -3256.55,7032.34 0,2477.83 977.38,4727.21 2567.36,6384.23l-59.4 834.5c-0.74,10.46 -1.12,19.4 -1.25,29.9 -2.01,163.65 -7.75,327.3 -14.21,490.88z"/>
  </g>
 </g>
</svg>
